PathFileType	4	(X/Y/Z)	D:\TRACE\spotREDO_2-26-24\spot_baseline_2-v60.trc
DataRate	CameraRate	NumFrames	NumMarkers	Units	OrigDataRate	OrigDataStartFrame	OrigNumFrames
100.00	100.00	      31	9	mm	100.00	3501	      7000
Frame#	Time	front left toe			Front right toe			aft left toe			aft right toe			Arm			FL body			FR body			AL Body			AR Body			
		X1	Y1	Z1	X2	Y2	Z2	X3	Y3	Z3	X4	Y4	Z4	X5	Y5	Z5	X6	Y6	Z6	X7	Y7	Z7	X8	Y8	Z8	X9	Y9	Z9	

3501	35.000	-176.42131	23.25851	-69.50248	295.72479	20.90222	-96.45823	-143.24586	24.29935	370.58890	320.77228	24.09138	343.80099	76.45148	808.82489	-312.01364	-0.23416	548.18707	-282.40216	154.97340	555.86377	-295.04251	61.83609	558.49359	598.82306	209.59773	561.70197	589.25269	
3502	35.010	-176.42511	23.26851	-69.46838	295.64978	20.93116	-96.42477	-143.22293	24.31994	370.60968	320.76932	24.17314	343.81427	75.63464	808.80426	-312.01291	-0.77716	548.20636	-282.31638	154.45943	555.85919	-294.96518	60.93159	558.62689	598.91382	208.98251	561.85480	589.32520	
3503	35.020	-176.46030	23.24327	-69.42324	295.61908	20.96659	-96.48516	-143.33449	24.30856	370.61060	320.79813	24.25071	343.85947	74.93462	808.78064	-311.84644	-1.32849	548.13055	-282.15424	154.03195	555.79974	-294.79376	60.38737	558.70117	599.08661	208.48199	561.91229	589.58453	
3504	35.030	-176.43617	23.11986	-69.43040	295.56073	20.92275	-96.44713	-143.30844	24.22434	370.58368	320.75430	24.23125	343.86487	74.43920	808.67438	-311.74606	-1.87883	547.89502	-281.88062	153.65829	555.73743	-294.70154	60.00102	558.77832	599.26733	207.97159	561.98950	589.74738	
3505	35.040	-176.45172	23.00600	-69.42731	295.52069	20.87770	-96.40849	-143.37216	24.16706	370.57846	320.72821	24.23366	343.88492	74.18264	808.67255	-311.69266	-2.29718	547.84271	-281.72278	153.07211	555.88672	-294.73465	59.45344	558.79950	599.39600	207.32523	561.98340	589.94818	
3506	35.050	-176.46439	23.01716	-69.38781	295.39017	20.95900	-96.51682	-143.46826	24.09686	370.55136	320.68292	24.25717	343.87933	73.83643	808.78278	-311.49841	-3.08445	548.04749	-281.51950	152.62180	555.93555	-294.58133	58.83931	558.85071	599.56299	206.68338	562.03357	590.06079	
3507	35.060	-176.52013	23.05633	-69.39384	295.27151	21.05103	-96.53119	-143.50671	24.17735	370.59482	320.55740	24.25815	343.86319	73.60483	808.92572	-311.36832	-3.49173	548.23212	-281.40155	152.12718	555.80243	-294.16730	58.33860	558.94122	599.69116	206.24037	562.16248	590.20697	
3508	35.070	-176.59698	23.12758	-69.31933	295.24121	21.05646	-96.49714	-143.50569	24.15892	370.62137	320.52463	24.33326	343.88284	73.19511	809.03680	-311.28482	-4.05801	548.37164	-281.23209	151.37213	555.78461	-294.10443	57.87980	559.09241	599.81543	205.79427	562.20386	590.31537	
3509	35.080	-176.55927	23.01484	-69.36159	295.12851	21.12030	-96.48325	-143.57216	24.09110	370.59369	320.51593	24.38095	343.94009	72.58218	809.05750	-311.21533	-4.71349	548.42645	-281.08426	150.36302	555.63885	-294.10162	57.65741	558.88678	599.70129	205.26045	562.12085	590.38269	
3510	35.090	-176.59103	22.84215	-69.29024	295.01193	21.11173	-96.53433	-143.65796	23.96886	370.64813	320.39331	24.32885	343.83893	72.25121	809.00183	-311.06076	-5.31064	548.48120	-281.09808	150.25073	555.48602	-294.07147	56.88201	559.03632	599.75604	204.84013	561.94122	590.44202	
3511	35.100	-176.64720	22.78946	-69.28424	294.98978	21.23333	-96.57384	-143.62622	23.91078	370.62482	320.44189	24.35657	343.85117	71.97523	809.05225	-310.82251	-5.92159	548.63281	-280.99561	149.63940	555.52417	-293.94873	56.56207	559.04944	599.84991	204.30771	561.82849	590.49243	
3512	35.110	-176.65710	22.75741	-69.25554	294.92484	21.23136	-96.55711	-143.64827	23.89509	370.63254	320.39133	24.41989	343.86676	71.67802	809.12970	-310.62149	-6.45169	548.76172	-280.94974	148.95345	555.59467	-293.75397	56.03271	559.75781	600.91333	203.61798	561.83459	590.77277	
3513	35.120	-176.67181	22.73731	-69.22216	294.88916	21.29950	-96.55448	-143.65613	23.96058	370.66812	320.41730	24.51767	343.95157	71.42088	809.22852	-310.54388	-7.33816	549.21149	-281.32587	148.41994	555.66974	-293.59512	55.48350	559.88708	601.18103	203.23268	561.90179	590.96619	
3514	35.130	-176.74284	22.72829	-69.19241	294.86606	21.36991	-96.57706	-143.74835	23.98033	370.64258	320.43973	24.60633	343.99057	71.21146	809.23737	-310.43790	-7.48196	549.10590	-280.73383	147.57109	555.73267	-293.56653	54.95236	560.04065	601.31738	203.44824	561.97040	591.51697	
3515	35.140	-176.71291	22.65387	-69.21935	294.77936	21.44180	-96.62502	-143.91998	23.89176	370.68094	320.22052	24.55090	343.88940	70.93193	809.26929	-310.35977	-8.04482	549.23157	-280.62784	147.54387	555.75177	-293.40353	54.49965	560.10767	601.40778	202.84184	561.93097	591.69916	
3516	35.150	-176.69937	22.53290	-69.17661	294.73154	21.53465	-96.69312	-143.92447	23.77046	370.68140	320.20975	24.58342	343.80783	70.59116	809.25305	-310.29529	-8.63214	549.36670	-280.50247	147.05582	555.73358	-293.28024	54.25486	560.12402	601.44360	201.70706	561.96558	591.41022	
3517	35.160	-176.70190	22.50887	-69.13479	294.68967	21.61461	-96.71937	-143.95856	23.75747	370.68338	320.14282	24.59469	343.81644	70.07414	809.36816	-310.24402	-9.12488	549.41113	-280.44501	146.49510	555.73962	-293.14014	53.71990	560.32349	601.45721	201.29413	561.95074	591.49402	
3518	35.170	-176.75368	22.54061	-69.10880	294.61899	21.68966	-96.71633	-144.08545	23.78271	370.71909	320.11682	24.67155	343.82593	69.54800	809.48938	-310.06723	-9.44717	549.48285	-280.35785	145.96472	555.73639	-292.96710	53.07523	560.49561	601.57611	200.96930	561.98987	591.59985	
3519	35.180	-176.80885	22.57163	-69.13126	294.64929	21.75134	-96.65723	-143.96062	23.73511	370.73172	320.16339	24.77201	343.89594	69.17686	809.50720	-309.90656	-10.18210	549.70660	-280.20355	145.56342	555.68939	-292.76810	52.47482	560.58960	601.66766	200.56908	562.01825	591.71271	
3520	35.190	-176.81044	22.54331	-69.09726	294.63388	21.74479	-96.65988	-144.03714	23.70098	370.79849	320.04794	24.72667	343.86987	68.97235	809.54266	-309.84293	-10.72415	549.60962	-279.97144	144.89983	555.58368	-292.79437	51.95148	560.64587	601.81458	199.98665	562.00226	591.71460	
3521	35.200	-176.82536	22.48089	-69.10410	294.58258	21.74811	-96.67204	-144.06078	23.65083	370.75943	319.93625	24.74141	343.83548	68.76153	809.54236	-309.77698	-11.07748	549.54126	-279.89551	144.42021	555.47174	-292.83527	51.65667	560.58301	601.77753	199.44437	561.87579	591.80499	
3522	35.210	-176.87321	22.37351	-69.06158	294.57983	21.78315	-96.75755	-144.07903	23.63909	370.74350	319.87457	24.78710	343.80457	68.50311	809.56927	-309.67624	-11.52513	549.53516	-279.89709	143.91151	555.39905	-292.74207	51.27285	560.60089	601.85663	198.96873	561.81458	591.86847	
3523	35.220	-176.95508	22.38224	-69.05434	294.51553	21.77552	-96.78282	-144.13058	23.61209	370.76089	319.79642	24.81282	343.75711	68.18065	809.52399	-309.62091	-12.03782	549.64807	-279.80359	143.50070	555.36346	-292.57852	50.69830	560.66779	602.00220	198.51601	561.72919	591.89972	
3524	35.230	-176.93483	22.41683	-69.02899	294.59091	21.83679	-96.66816	-144.21271	23.70701	370.80365	319.76025	24.87191	343.73141	67.52116	809.52185	-309.54865	-12.57389	549.75079	-279.74728	143.13281	555.36017	-292.46494	50.21265	560.79535	602.11603	198.50800	561.78540	592.40326	
3525	35.240	-176.92047	22.38425	-69.05647	294.56180	21.85181	-96.65566	-144.18600	23.64422	370.78781	319.71774	24.86770	343.74734	67.00152	809.57928	-309.47827	-12.96636	549.70410	-279.69644	142.73988	555.37390	-292.37653	49.98095	560.77728	602.19415	198.09628	561.77472	592.52673	
3526	35.250	-176.97133	22.37389	-69.02874	294.54593	21.85557	-96.66756	-144.16066	23.56200	370.88651	319.70087	24.86278	343.79034	66.54443	809.51447	-309.45892	-13.68137	549.80994	-279.64621	142.26877	555.34857	-292.20511	49.31108	560.82080	602.27496	197.80951	561.81415	592.59900	
3527	35.260	-177.04594	22.27171	-68.97127	294.50842	21.93206	-96.64744	-144.16194	23.42657	370.99799	319.68179	24.91982	343.76944	66.13712	809.45300	-309.48251	-13.99462	549.79895	-279.34167	141.70598	555.24347	-292.16678	48.90742	560.78424	602.36761	197.03377	561.79523	592.25427	
3528	35.270	-177.06573	22.23266	-68.93067	294.52213	21.97242	-96.64067	-144.20403	23.37660	371.03345	319.62747	24.92772	343.67358	65.84864	809.40912	-309.45389	-14.49319	549.82764	-279.33347	141.12881	555.24866	-292.21936	48.99062	560.72791	602.38940	196.62845	561.78363	592.36676	
3529	35.280	-177.10249	22.27024	-68.90648	294.47318	21.97191	-96.64216	-144.28879	23.39887	371.03485	319.59360	24.96123	343.64749	65.39665	809.45337	-309.44699	-15.04224	550.12897	-279.71820	140.79741	555.24707	-292.08600	48.28602	560.77771	602.46503	196.31290	561.76758	592.43817	
3530	35.290	-177.16827	22.30182	-68.88836	294.49704	22.03489	-96.65765	-144.27798	23.42993	371.01837	319.63831	25.01045	343.69098	65.01764	809.48560	-309.30008	-15.46397	550.00897	-279.51144	140.26421	555.28210	-292.01050	47.98272	560.86786	602.53333	195.82713	561.86578	592.52509	
3531	35.300	-177.15601	22.23788	-68.89443	294.45135	22.02249	-96.63018	-144.31813	23.42449	371.09320	319.64111	25.02592	343.67868	64.57053	809.43060	-309.21313	-15.71426	549.84821	-278.85751	139.78897	555.32867	-291.90094	47.81604	560.96381	602.62299	195.49765	561.92859	592.61493	
